<svg xmlns="http://www.w3.org/2000/svg" viewBox="0 0 500 113.6" style="enable-background:new 0 0 500 113.6" xml:space="preserve"><path d="M118 71.2v-9.9c0-.4.3-.7.7-.7h2.4c1 0 1.8.3 2.4 1 .8.8 1.2 1.6 2.2 4.8.6 1.8 1 3.5 1.4 5.1.1.3.4.6.7.6h5.6c.4 0 .7-.3.7-.7 0-.1 0-.2-.1-.3-.5-1.3-.9-2.3-1.1-2.8-.9-2.5-1.7-4.6-2.3-6.3-1-2.6-1.7-3.4-3.3-4 1.5-.6 2.2-1 3-1.8 1.2-1.3 1.8-3.4 1.8-6 0-5.2-2.9-8.3-8-8.3h-11.8c-.4 0-.7.3-.7.7v28.8c0 .4.3.7.7.7h4.7c.6-.2 1-.5 1-.9zm4.8-17h-4.1c-.4 0-.7-.3-.7-.7v-5c0-.4.3-.7.7-.7h4.2c1.9 0 2.9 1.1 2.9 3.1s-1.1 3.3-3 3.3zm23.3 18.6c3.1 0 5.6-1.1 7.4-3.1.5-.6 1.1-1.6 1.7-3 .2-.4 0-.8-.4-1h-.1l-4-1.3c-.4-.1-.8.1-.9.4-.2.6-.5 1-.7 1.2-.8.9-1.9 1.3-3.2 1.3-2.5 0-3.9-1.6-4.2-4.5H155c.4 0 .7-.3.7-.7v-.4c-.1-1.9-.2-3.3-.4-4.3-1.1-5.4-4.5-8.5-9.4-8.5-6 0-9.9 4.8-9.9 12 0 3.6 1 6.7 2.8 8.9 1.9 2 4.3 3 7.3 3zm3.8-15h-8c.5-2.4 1.9-3.6 4.1-3.6 2.1.1 3.5 1.3 3.9 3.6zm14.9 14.6c2.6 0 4.3-.6 6.1-2.2v.9c0 .4.3.7.7.7h4.4c.4 0 .7-.3.7-.7V56.9c0-3.3-.9-5.3-2.9-6.5-1.2-.8-3.5-1.3-5.8-1.3-3 0-5.3.7-7 2.1-1.1.9-1.7 1.8-2.3 3.3 0 .1-.1.2-.1.3-.1.4.1.8.5.9h.1l4.5.9c.4.1.7-.1.8-.5V56c.5-1.3 1.6-1.9 3.3-1.9 2.1 0 3 .8 3 2.5v.1c0 .4-.3.7-.7.7-1.7.1-3 .1-3.7.2-2.8.3-4.9 1.1-6.5 2.4-1.5 1.2-2.3 3-2.3 5.3 0 2 .6 3.7 1.7 4.9 1.3 1.6 3.1 2.2 5.5 2.2zm1.4-5c-1.6 0-2.6-.8-2.6-2.1 0-1.1.7-2 1.8-2.4.8-.3 2.3-.5 4.6-.7.4 0 .8.3.8.7v.3c0 1.1-.4 2.1-1.1 2.8-.8.9-2.2 1.4-3.5 1.4zm23.2 5.3c3.6 0 6.5-1.5 8-4.2.3-.6.7-1.5 1.1-2.8.1-.4-.1-.8-.5-.9h-.1l-4.3-.8c-.4-.1-.7.2-.8.5-.1.5-.3.8-.4 1-.6 1-1.7 1.6-3 1.6-2.5 0-4.1-2.5-4.1-6.5s1.5-6.3 4-6.3c1.1 0 2 .4 2.6 1.3.2.3.4.8.7 1.5.1.4.5.6.9.5l4.2-1c.4-.1.6-.5.5-.9-.1-.4-.2-.6-.3-.9-1.4-3.8-4.5-6-8.7-6-6.1 0-10 4.7-10 11.9 0 3.6 1 6.8 2.8 8.8 1.9 2.2 4.4 3.2 7.4 3.2zm20.5-.2h3.6c.4 0 .7-.3.7-.7v-4.1c0-.4-.3-.7-.7-.7h-1.9c-.6 0-1.1-.1-1.4-.4-.4-.3-.6-.8-.6-1.9v-9.3h3.4c.4 0 .7-.3.7-.7v-4.2c0-.4-.3-.7-.7-.7h-3.4v-5c0-.4-.3-.7-.7-.7h-4.4c-.4 0-.7.3-.7.7v5h-3.2c-.4 0-.7.3-.7.7v4.2c0 .4.3.7.7.7h3.2v11.1c0 2.5.4 3.7 1.6 4.8.9.8 2.4 1.2 4.5 1.2zm23.5-1.4c-.1-1.7-.2-3.2-.2-4.5V58c0-1.8-.1-3.8-.2-5.4.9 1.9 1.4 3 2.2 4.5l5.8 10.1 1.9 3.8c.3.5.8.8 1.3.8h5.2c.4 0 .7-.3.7-.7V42.4c0-.4-.3-.7-.7-.7h-4.9c-.4 0-.7.3-.7.7v13.1c0 2.5.1 4.3.2 5.4-.7-1.6-1.3-2.8-2.2-4.3L234 42.4c-.3-.5-.8-.8-1.3-.8h-4.9c-.4 0-.7.3-.7.7v28.8c0 .4.3.7.7.7h4.9c.4.1.7-.2.7-.7zm26.8 1.3c2.6 0 4.3-.6 6.1-2.2v.9c0 .4.3.7.7.7h4.4c.4 0 .7-.3.7-.7V56.9c0-3.3-.9-5.3-2.9-6.5-1.2-.8-3.5-1.3-5.8-1.3-3 0-5.3.7-7 2.1-1.1.9-1.7 1.8-2.3 3.3 0 .1-.1.2-.1.3-.1.4.1.8.5.9h.1l4.5.9c.4.1.7-.1.8-.5.1-.2.1-.3.2-.4.6-1.1 1.6-1.6 3.2-1.6 2.1 0 3 .8 3 2.5v.1c0 .4-.3.7-.7.7-1.7.1-3 .1-3.7.2-2.8.3-4.9 1.1-6.5 2.4-1.5 1.2-2.3 3-2.3 5.3 0 2 .6 3.7 1.7 4.9 1.3 1.6 3.1 2.2 5.4 2.2zm1.5-5c-1.6 0-2.6-.8-2.6-2.1 0-1.1.7-2 1.8-2.4.8-.3 2.3-.5 4.6-.7.4 0 .8.3.8.7v.3c0 1.1-.4 2.1-1.1 2.8-.9.9-2.3 1.4-3.5 1.4zm22.6 5.1h3.6c.4 0 .7-.3.7-.7v-4.1c0-.4-.3-.7-.7-.7H286c-.6 0-1.1-.1-1.4-.4-.4-.3-.6-.8-.6-1.9v-9.3h3.4c.4 0 .7-.3.7-.7v-4.2c0-.4-.3-.7-.7-.7H284v-5c0-.4-.3-.7-.7-.7h-4.4c-.4 0-.7.3-.7.7v5H275c-.4 0-.7.3-.7.7v4.2c0 .4.3.7.7.7h3.2v11.1c0 2.5.4 3.7 1.6 4.8.9.8 2.4 1.2 4.5 1.2zm12.6-26.1v-4c0-.4-.3-.7-.7-.7h-4.5c-.4 0-.7.3-.7.7v4c0 .4.3.7.7.7h4.5c.3 0 .7-.3.7-.7zm0 24.8V50.5c0-.4-.3-.7-.7-.7h-4.5c-.4 0-.7.3-.7.7v20.7c0 .4.3.7.7.7h4.5c.3 0 .7-.3.7-.7zm16.5.2 6.5-20.7c.1-.4-.1-.8-.5-.9h-5.2c-.3 0-.6.2-.7.6l-3.4 13.8c0 .2-.2.3-.4.3-.1 0-.2-.1-.3-.3L306 50.4c-.1-.3-.4-.6-.7-.6h-4.9c-.4 0-.7.3-.7.7v.2l6.5 20.7c.1.3.4.5.7.5h5.7c.4 0 .7-.2.8-.5zm18.3 1.4c3.1 0 5.6-1.1 7.4-3.1.8-.9 1.2-1.6 1.8-3.1.1-.3 0-.7-.4-.9l-4.1-1.4c-.3-.1-.7.1-.8.4-.2.5-.4.9-.8 1.3-.8.9-1.9 1.3-3.2 1.3-2.5 0-3.9-1.6-4.2-4.5h13.3c.4 0 .7-.3.7-.7-.1-2.1-.2-3.6-.5-4.8-1.1-5.4-4.5-8.5-9.4-8.5-6 0-9.9 4.8-9.9 12 0 3.6 1 6.7 2.8 8.9 1.8 2.1 4.2 3.1 7.3 3.1zm3.8-15h-8c.5-2.4 1.9-3.6 4.1-3.6 2.1.1 3.4 1.3 3.9 3.6zm38.6 13.4v-4.8c0-.4-.3-.7-.7-.7H361v-6.1h10.6c.4 0 .7-.3.7-.7V54c0-.4-.3-.7-.7-.7H361V48h12c.4 0 .7-.3.7-.7v-4.8c0-.4-.3-.7-.7-.7h-17.5c-.4 0-.7.3-.7.7v28.8c0 .4.3.7.7.7h17.8c.5-.1.8-.4.8-.8zm12.2 1.5c3.6 0 6.5-1.5 8-4.2.5-.9.8-1.7 1.1-2.8.1-.4-.1-.8-.5-.9h-.1l-4.3-.8c-.4-.1-.7.2-.8.5-.1.4-.2.7-.4 1-.6 1-1.7 1.6-3 1.6-2.5 0-4.1-2.5-4.1-6.5s1.5-6.3 4-6.3c1.1 0 2 .4 2.6 1.3.3.4.5.8.7 1.4.1.4.5.6.9.5l4.2-1c.4-.1.6-.5.5-.9v-.1c-1.2-4.3-4.4-6.7-9-6.7-6.1 0-10 4.7-10 11.9 0 3.6 1 6.8 2.8 8.8 1.8 2.2 4.4 3.2 7.4 3.2zm17.9-1.5V59c0-2.3 1.8-3.7 3.6-3.7s3.6.8 3.6 3.7v12.2c0 .4.3.7.7.7h4.5c.4 0 .7-.3.7-.7V58.3c0-2.9-.4-4.9-1.5-6.3-1.1-1.4-3-2.7-5.6-2.7-2.7 0-4.4.7-6.1 2.5v-9.4c0-.4-.3-.7-.7-.7H399c-.4 0-.7.3-.7.7v28.7c0 .4.3.7.7.7h4.5c.4.1.7-.2.7-.6zm23.2 1.2c2.6 0 4.3-.6 6.1-2.2v.9c0 .4.3.7.7.7h4.4c.4 0 .7-.3.7-.7V56.9c0-3.3-.9-5.3-2.9-6.5-1.2-.8-3.5-1.3-5.8-1.3-3 0-5.3.7-7 2.1-1.1.9-1.8 1.9-2.4 3.6-.1.4.1.8.5.9h.1l4.5.9c.4.1.7-.1.8-.5V56c.5-1.3 1.6-1.9 3.3-1.9 2.1 0 3 .8 3 2.5v.1c0 .4-.3.7-.7.7-1.7.1-3 .1-3.7.2-2.8.3-4.9 1.1-6.5 2.4-1.5 1.2-2.3 3-2.3 5.3 0 2 .6 3.7 1.7 4.9 1.3 1.6 3.1 2.2 5.5 2.2zm1.4-5c-1.6 0-2.6-.8-2.6-2.1 0-1.1.7-2 1.8-2.4.8-.3 2.3-.5 4.6-.7.4 0 .8.3.8.7v.3c0 1.1-.4 2.1-1.1 2.8-.8.9-2.2 1.4-3.5 1.4zm20.2 3.8V60.8c.2-1.6.5-2.7.9-3.2.9-1.3 2.1-2 3.7-2h2.5c.4 0 .7-.3.7-.7v-3.5c0-.3-.2-.6-.5-.7-.7-.3-1.6-.5-2.7-.5-2 0-3.1.4-4.6 2.4v-2.1c0-.4-.3-.7-.7-.7h-4.5c-.4 0-.7.3-.7.7v20.6c0 .4.3.7.7.7h4.5c.4.1.7-.2.7-.6zm19.8 1.3h3.1c.4 0 .7-.3.7-.7v-4.1c0-.4-.3-.7-.7-.7h-1.4c-.6 0-1.1-.1-1.4-.4-.4-.3-.6-.8-.6-1.9v-9.3h3.4c.4 0 .7-.3.7-.7v-4.2c0-.4-.3-.7-.7-.7h-3.4v-5c0-.4-.3-.7-.7-.7h-4.4c-.4 0-.7.3-.7.7v5h-3.2c-.4 0-.7.3-.7.7v4.2c0 .4.3.7.7.7h3.2v11.1c0 2.5.4 3.7 1.6 4.8 1 .8 2.4 1.2 4.5 1.2zm15.1.1c3.3 0 5.9-.9 7.4-2.7 1-1.2 1.6-2.9 1.6-4.8 0-2.6-1-4.4-3-5.6-1.1-.7-2.1-1-5.1-1.7-3.1-.8-3.7-1.2-3.7-2.1 0-.9 1-1.6 2.6-1.6 1.2 0 1.9.3 2.3 1 .1.1.1.3.2.5.1.4.4.6.8.5l4.5-.6c.4-.1.7-.4.6-.8v-.1c-.1-.3-.2-.6-.2-.7-.4-1.1-.8-1.8-1.6-2.6-1.5-1.6-3.7-2.3-6.6-2.3-5.2 0-8.4 2.7-8.4 7 0 1.2.3 2.5.8 3.5.6 1.1 1.6 1.9 3.1 2.6 1 .4 2.2.8 4.6 1.3 1.7.4 2.1.5 2.6.8.4.3.7.8.7 1.3 0 1.1-1.1 1.7-2.9 1.7-1.7 0-2.7-.6-3.2-1.8 0-.1-.1-.2-.1-.3-.1-.4-.4-.6-.8-.5l-4.7.6c-.4.1-.7.4-.6.8v.1c0 .2.1.3.1.4.2 1 .5 1.7 1 2.5 1.3 2.3 4 3.6 8 3.6z" style="fill:#306df8"/><path style="fill:none" d="M0 0h106.1v113.6H0z"/><g transform="rotate(-3 214.15 -165.451)"><linearGradient id="a" gradientUnits="userSpaceOnUse" x1="-373.259" y1="1180.995" x2="-374.917" y2="1181.081" gradientTransform="matrix(31.5593 1.6692 1.654 -31.8501 9898.304 38287.66)"><stop offset="0" style="stop-color:#50a0ff"/><stop offset="1" style="stop-color:#306df8"/></linearGradient><path d="M67.4 26.6 53.1 40.8c-.4.4-1 .7-1.7.7-.3 0-.6-.1-.9-.2-2-1.1-4.5-1.3-6.8-.4-4.2 1.6-6.3 6.4-4.7 10.6 1.6 4.2 6.4 6.4 10.6 4.7 2.4-.9 4.1-2.8 4.8-5.1.2-1 1.1-1.6 2.2-1.6h.3L74.1 51h.3c1.2.1 2.1 1.1 2 2.3v.3c-1.7 10.2-8.6 19.2-18.9 23.1-15.5 6-33-1.8-38.9-17.4s1.8-33 17.3-39c11.2-4.3 23.3-1.4 31.5 6.3z" style="fill:url(#a)"/><linearGradient id="b" gradientUnits="userSpaceOnUse" x1="-374.577" y1="1189.1" x2="-375.362" y2="1189.716" gradientTransform="matrix(34.4212 2.1449 1.8039 -40.9263 10813.273 49535.285)"><stop offset="0" style="stop-color:#02ddff"/><stop offset="1" style="stop-color:#01b9ff"/></linearGradient><path d="m71.5 19.4-.2-.1c.5.4.8 1 .7 1.7 0 .5-.3 1-.6 1.4l.1-.1-7.7 7.7c-10-9.2-25.8-9-35.7.9-10 10-10.1 26.3 0 36.3 9.6 9.6 24.9 10 35 1.2v.1c.4-.3.9-.5 1.5-.5.5 0 1 .3 1.4.6h.1l6.5 6.5-.4-.1c.4.4.6 1 .6 1.6 0 .8-.5 1.5-1.2 1.8l.4-.4c-15.3 13.6-38.6 13.1-53.2-1.5-15.1-15.1-15.1-39.7.1-54.9C33.3 7.2 56.3 6.5 71.5 19.4z" style="fill:url(#b)"/></g></svg>