<svg width="264" height="60" viewBox="0 0 264 60" xmlns="http://www.w3.org/2000/svg"><defs><linearGradient x1="93.466%" y1="29.375%" x2="5.929%" y2="24.82%" id="a"><stop stop-color="#50A0FF" offset="0%"/><stop stop-color="#306DF8" offset="100%"/></linearGradient><linearGradient x1="80.118%" y1="82.551%" x2="38.674%" y2="50%" id="b"><stop stop-color="#02DDFF" offset="0%"/><stop stop-color="#01B9FF" offset="100%"/></linearGradient></defs><g fill="none" fill-rule="evenodd"><path d="M56 0h208v60H56z"/><path d="M62.278 37.575v-5.263a.391.391 0 0 1 .39-.39h1.29c.526 0 .938.153 1.284.517.412.423.61.864 1.136 2.533.304.947.55 1.843.74 2.689.04.178.2.305.382.305h2.959a.391.391 0 0 0 .363-.537 33.01 33.01 0 0 1-.573-1.497c-.468-1.307-.874-2.42-1.219-3.339-.527-1.362-.906-1.804-1.746-2.11.807-.308 1.153-.519 1.565-.96.642-.71.972-1.785.972-3.147 0-2.764-1.549-4.376-4.217-4.376h-6.212a.391.391 0 0 0-.392.392v15.183a.39.39 0 0 0 .391.391h2.496a.391.391 0 0 0 .39-.391Zm2.569-8.935h-2.178a.391.391 0 0 1-.392-.391v-2.634a.39.39 0 0 1 .392-.39h2.194c1.021 0 1.548.556 1.548 1.63 0 1.094-.593 1.785-1.564 1.785Zm12.302 9.787c1.63 0 2.949-.557 3.887-1.632.263-.306.566-.831.909-1.576a.391.391 0 0 0-.234-.535l-2.098-.689a.391.391 0 0 0-.483.222c-.122.294-.245.508-.367.64-.428.46-1.004.71-1.663.71-1.301 0-2.075-.825-2.24-2.38h6.998a.391.391 0 0 0 .391-.397 9.366 9.366 0 0 0-.004-.203c-.049-.985-.114-1.724-.237-2.297-.576-2.859-2.372-4.49-4.94-4.49-3.147 0-5.238 2.514-5.238 6.313 0 1.9.527 3.531 1.499 4.682.938 1.094 2.206 1.632 3.82 1.632Zm1.993-7.887H74.91c.28-1.267.988-1.88 2.157-1.88 1.137 0 1.845.652 2.075 1.88Zm7.856 7.695c1.35 0 2.273-.327 3.195-1.152v.492a.39.39 0 0 0 .391.391h2.298a.391.391 0 0 0 .392-.391V30.06c0-1.727-.462-2.782-1.516-3.454-.642-.403-1.828-.672-3.047-.672-1.597 0-2.816.365-3.706 1.094-.56.467-.904.958-1.19 1.73a5.61 5.61 0 0 0-.058.166.391.391 0 0 0 .299.508l2.374.449a.391.391 0 0 0 .45-.275c.288-.7.831-1.004 1.749-1.004 1.087 0 1.564.422 1.564 1.343v.064a.39.39 0 0 1-.376.39c-.919.036-1.567.076-1.946.122-1.482.153-2.586.556-3.426 1.247-.79.633-1.202 1.593-1.202 2.801 0 1.056.313 1.977.906 2.61.659.71 1.598 1.056 2.85 1.056Zm.741-2.648c-.856 0-1.35-.403-1.35-1.094 0-.557.362-1.037.955-1.267.405-.15 1.215-.268 2.43-.356a.391.391 0 0 1 .42.39v.12c0 .575-.215 1.094-.594 1.477-.444.442-1.185.73-1.86.73Zm12.287 2.82c1.91 0 3.409-.786 4.232-2.206.175-.31.364-.804.57-1.48a.391.391 0 0 0-.304-.498l-2.246-.413a.391.391 0 0 0-.447.277 2.368 2.368 0 0 1-.208.54c-.33.537-.922.844-1.564.844-1.318 0-2.158-1.343-2.158-3.415 0-2.111.79-3.34 2.125-3.34.593 0 1.054.231 1.383.672.112.15.23.414.355.79a.391.391 0 0 0 .462.257l2.222-.532a.391.391 0 0 0 .286-.482 6.306 6.306 0 0 0-.136-.45c-.724-2.03-2.362-3.171-4.605-3.171-3.212 0-5.287 2.456-5.287 6.294 0 1.88.527 3.57 1.482 4.663.906 1.075 2.257 1.65 3.838 1.65Zm10.787-.115h1.882a.391.391 0 0 0 .391-.39v-2.174a.391.391 0 0 0-.391-.39h-1.009c-.313 0-.576-.078-.757-.212-.215-.173-.297-.441-.297-.979v-4.912h1.816a.391.391 0 0 0 .391-.391v-2.192a.391.391 0 0 0-.391-.392h-1.816v-2.64a.391.391 0 0 0-.391-.391h-2.314a.391.391 0 0 0-.391.39v2.641h-1.668a.391.391 0 0 0-.39.392v2.192c0 .216.174.39.39.39h1.668v5.873c0 1.305.23 1.957.856 2.514.527.46 1.301.671 2.421.671Zm12.419-.746a34.202 34.202 0 0 1-.1-2.357v-4.515c0-.94-.032-1.996-.115-2.86.461 1.018.741 1.594 1.186 2.361l3.047 5.354 1.018 2.008a.782.782 0 0 0 .698.429h2.734a.391.391 0 0 0 .39-.391V22.392a.391.391 0 0 0-.39-.392h-2.594a.391.391 0 0 0-.391.392v6.9c.022 1.305.055 2.252.098 2.84a26.952 26.952 0 0 0-1.185-2.283l-4.076-7.442a.782.782 0 0 0-.686-.407h-2.588a.391.391 0 0 0-.391.392v15.183a.39.39 0 0 0 .391.391h2.563a.391.391 0 0 0 .39-.42Zm14.18.689c1.35 0 2.272-.327 3.195-1.152v.492a.39.39 0 0 0 .39.391h2.3a.39.39 0 0 0 .39-.39c.002-.813.002-1.52 0-2.12V30.06c0-1.727-.462-2.782-1.516-3.454-.642-.403-1.828-.672-3.047-.672-1.597 0-2.816.365-3.705 1.094-.56.466-.904.956-1.189 1.726a5.645 5.645 0 0 0-.06.17.391.391 0 0 0 .299.508l2.378.45a.391.391 0 0 0 .44-.247c.03-.08.057-.145.082-.192.304-.584.83-.841 1.673-.841 1.087 0 1.565.422 1.565 1.343v.064a.39.39 0 0 1-.376.39c-.92.036-1.568.076-1.947.122-1.482.153-2.585.556-3.425 1.247-.79.633-1.202 1.593-1.202 2.801 0 1.056.312 1.977.905 2.61.66.71 1.598 1.056 2.85 1.056Zm.74-2.648c-.856 0-1.35-.403-1.35-1.094 0-.557.363-1.037.955-1.267.406-.15 1.216-.268 2.43-.356a.391.391 0 0 1 .42.39v.12c0 .575-.214 1.094-.593 1.477-.445.442-1.186.73-1.861.73Zm11.974 2.705h1.882a.391.391 0 0 0 .39-.39v-2.174a.391.391 0 0 0-.39-.39h-1.009c-.313 0-.576-.078-.758-.212-.214-.173-.296-.441-.296-.979v-4.912h1.816a.391.391 0 0 0 .39-.391v-2.192a.391.391 0 0 0-.39-.392h-1.816v-2.64a.391.391 0 0 0-.391-.391h-2.314a.391.391 0 0 0-.391.39v2.641h-1.669a.391.391 0 0 0-.391.392v2.192c0 .216.175.39.391.39h1.668v5.873c0 1.305.23 1.957.856 2.514.527.46 1.301.671 2.421.671Zm6.62-13.804v-2.096a.391.391 0 0 0-.39-.392h-2.397a.391.391 0 0 0-.39.392v2.096c0 .216.174.39.39.39h2.397a.391.391 0 0 0 .39-.39Zm0 13.087V26.652a.391.391 0 0 0-.39-.392h-2.397a.391.391 0 0 0-.39.392v10.923a.39.39 0 0 0 .39.391h2.397a.391.391 0 0 0 .39-.391Zm8.717.118 3.446-10.924a.391.391 0 0 0-.373-.509h-2.621a.391.391 0 0 0-.38.299l-1.78 7.29a.196.196 0 0 1-.38 0l-1.78-7.29a.391.391 0 0 0-.38-.299h-2.605a.391.391 0 0 0-.373.51l3.447 10.923a.391.391 0 0 0 .373.273h3.033a.39.39 0 0 0 .373-.273Zm9.664.734c1.63 0 2.948-.557 3.887-1.632.402-.469.642-.865.948-1.622a.356.356 0 0 0-.219-.471l-2.184-.717a.333.333 0 0 0-.418.207c-.1.29-.212.461-.4.665-.428.46-1.005.71-1.663.71-1.302 0-2.076-.825-2.24-2.38h7.011a.383.383 0 0 0 .383-.383c-.049-1.094-.115-1.9-.247-2.514-.576-2.859-2.371-4.49-4.94-4.49-3.146 0-5.238 2.514-5.238 6.313 0 1.9.527 3.531 1.499 4.682.939 1.094 2.207 1.632 3.82 1.632Zm1.993-7.887h-4.233c.28-1.267.988-1.88 2.158-1.88 1.136 0 1.844.652 2.075 1.88Zm20.406 7.035v-2.538a.391.391 0 0 0-.392-.39h-6.542v-3.225h5.637a.391.391 0 0 0 .39-.39v-2.5a.391.391 0 0 0-.39-.391h-5.637v-2.82h6.345a.391.391 0 0 0 .39-.392v-2.538a.391.391 0 0 0-.39-.391h-9.215a.391.391 0 0 0-.391.391v15.184a.39.39 0 0 0 .391.391h9.412a.391.391 0 0 0 .392-.391Zm6.423.832c1.91 0 3.409-.786 4.232-2.206.26-.461.44-.896.597-1.5a.382.382 0 0 0-.301-.473l-2.27-.417a.375.375 0 0 0-.43.277c-.057.22-.128.366-.23.539-.33.537-.923.844-1.565.844-1.318 0-2.158-1.343-2.158-3.415 0-2.111.79-3.34 2.125-3.34.593 0 1.054.231 1.383.672.16.216.256.42.356.752l.007.023c.059.2.264.318.466.27l2.215-.531a.391.391 0 0 0 .287-.481 3.904 3.904 0 0 0-.019-.067c-.648-2.269-2.347-3.554-4.728-3.554-3.212 0-5.287 2.456-5.287 6.294 0 1.88.527 3.57 1.482 4.663.906 1.075 2.257 1.65 3.838 1.65Zm9.486-.832v-6.44a1.93 1.93 0 0 1 1.91-1.977c.94 0 1.895.403 1.895 1.977v6.44a.39.39 0 0 0 .39.391h2.38a.391.391 0 0 0 .392-.391V30.76c0-1.516-.214-2.572-.792-3.306a3.737 3.737 0 0 0-2.98-1.424c-1.4 0-2.346.346-3.211 1.343l.015-4.98a.391.391 0 0 0-.391-.393h-2.362a.391.391 0 0 0-.392.392v15.183c0 .216.176.391.392.391h2.363a.391.391 0 0 0 .391-.391Zm12.22.66c1.351 0 2.273-.327 3.196-1.152v.492a.39.39 0 0 0 .39.391h2.3a.39.39 0 0 0 .39-.39c.002-.813.002-1.52 0-2.12V30.06c0-1.727-.462-2.782-1.516-3.454-.642-.403-1.828-.672-3.047-.672-1.597 0-2.816.365-3.705 1.094-.597.497-.949 1.022-1.246 1.884a.391.391 0 0 0 .294.52l2.376.449a.391.391 0 0 0 .438-.245 1.26 1.26 0 0 1 .013-.032c.288-.698.831-1.002 1.748-1.002 1.087 0 1.565.422 1.565 1.343v.064a.39.39 0 0 1-.376.39c-.92.036-1.568.076-1.947.122-1.482.153-2.585.556-3.425 1.247-.79.633-1.203 1.593-1.203 2.801 0 1.056.313 1.977.906 2.61.66.71 1.598 1.056 2.85 1.056Zm.742-2.648c-.857 0-1.35-.403-1.35-1.094 0-.557.361-1.037.954-1.267.406-.15 1.216-.268 2.43-.356a.391.391 0 0 1 .42.39v.12c0 .575-.214 1.094-.593 1.477-.445.442-1.186.73-1.861.73Zm10.672 1.988v-5.481c.12-.831.285-1.4.494-1.708.478-.69 1.106-1.036 1.946-1.036h1.303a.391.391 0 0 0 .39-.391V27.1a.391.391 0 0 0-.242-.362c-.387-.158-.871-.238-1.45-.238-1.063 0-1.625.22-2.441 1.276v-1.124a.391.391 0 0 0-.391-.392h-2.364a.391.391 0 0 0-.39.392v10.923a.39.39 0 0 0 .39.391h2.364a.391.391 0 0 0 .39-.391Zm10.482.717h1.634a.391.391 0 0 0 .391-.39v-2.174a.391.391 0 0 0-.39-.39h-.762c-.313 0-.577-.078-.758-.212-.214-.173-.296-.441-.296-.979v-4.912h1.815a.391.391 0 0 0 .391-.391v-2.192a.391.391 0 0 0-.39-.392h-1.816v-2.64a.391.391 0 0 0-.392-.391h-2.314a.391.391 0 0 0-.39.39v2.641h-1.668a.391.391 0 0 0-.391.392v2.192c0 .216.175.39.39.39h1.668v5.873c0 1.305.23 1.957.857 2.514.527.46 1.3.671 2.42.671Zm7.93.02c1.763 0 3.114-.48 3.904-1.401.544-.614.84-1.536.84-2.553 0-1.381-.51-2.322-1.58-2.936-.577-.345-1.088-.518-2.702-.92-1.63-.423-1.976-.615-1.976-1.133 0-.499.527-.825 1.383-.825.63 0 1.02.173 1.223.553.03.056.06.139.089.247a.39.39 0 0 0 .427.287l2.377-.301a.391.391 0 0 0 .327-.495 6.978 6.978 0 0 0-.12-.386c-.203-.577-.447-.97-.831-1.363-.774-.826-1.944-1.228-3.508-1.228-2.75 0-4.414 1.4-4.414 3.703 0 .652.148 1.305.412 1.823.313.576.856 1.017 1.647 1.362.543.212 1.185.403 2.437.691.906.211 1.12.288 1.35.442a.81.81 0 0 1 .363.69c0 .595-.56.922-1.548.922-.904 0-1.443-.296-1.7-.951a1.684 1.684 0 0 1-.05-.16.391.391 0 0 0-.427-.283l-2.498.323a.391.391 0 0 0-.332.468c.016.08.03.144.043.194.131.546.286.907.533 1.31.791 1.267 2.257 1.92 4.332 1.92Z" fill="#000" fill-rule="nonzero"/><path d="M0 0h56v60H0z"/><g fill-rule="nonzero"><path d="m31.627 8.638-7.542 7.52.006-.009a1.122 1.122 0 0 1-1.348.23l.01.01a4.32 4.32 0 0 0-3.59-.224 4.343 4.343 0 0 0-2.49 5.615 4.343 4.343 0 0 0 5.608 2.507 4.322 4.322 0 0 0 2.553-2.667 1.126 1.126 0 0 1 1.302-.823l9.065.748a1.13 1.13 0 0 1 1.192 1.354l.01.016c-.904 5.36-4.531 10.115-9.966 12.2-8.197 3.147-17.401-.968-20.558-9.192-3.157-8.223.93-17.44 9.127-20.587 5.894-2.262 12.308-.77 16.62 3.302Z" fill="url(#a)" transform="rotate(-3 214.15 -165.451)"/><path d="m33.795 4.863-.088-.055.001.019a1.132 1.132 0 0 1 .06 1.648v.016l.055-.03-4.07 4.07c-5.317-4.948-13.654-4.82-18.848.374-5.311 5.311-5.325 13.908-.03 19.203 5.056 5.056 13.125 5.271 18.467.654l-.022.046a1.122 1.122 0 0 1 1.51.055l.034.001 3.41 3.41-.124-.076a1.132 1.132 0 0 1-.316 1.806l.253-.224c-8.058 7.184-20.402 6.93-28.108-.776-7.99-7.99-7.97-20.964.046-28.98 7.622-7.622 19.73-8.014 27.77-1.161Z" fill="url(#b)" transform="rotate(-3 214.15 -165.451)"/></g></g></svg>