<?xml version="1.0" encoding="UTF-8"?>
<svg version="1.1" viewBox="0 0 56 60" xmlns="http://www.w3.org/2000/svg">
  <title>logo</title>
  <defs>
    <linearGradient id="b" x1="93.466%" x2="5.9287%" y1="29.375%" y2="24.82%">
      <stop stop-color="#50A0FF" offset="0"/>
      <stop stop-color="#306DF8" offset="1"/>
    </linearGradient>
    <linearGradient id="a" x1="80.118%" x2="38.674%" y1="82.551%" y2="50%">
      <stop stop-color="#02DDFF" offset="0"/>
      <stop stop-color="#01B9FF" offset="1"/>
    </linearGradient>
  </defs>
  <g fill="none" fill-rule="evenodd">
    <rect width="56" height="60"/>
    <g transform="translate(28.208 30.491) rotate(-3) translate(-18.208 -20.491)" fill-rule="nonzero">
      <path id="c" d="m31.627 8.6381-7.5412 7.5198 0.0056455-0.0086504c-0.21947 0.23543-0.53677 0.37511-0.88223 0.35695-0.16803-0.008834-0.32554-0.054106-0.46533-0.12778l0.010032 0.010027c-1.0705-0.57048-2.3713-0.69147-3.5905-0.22348-2.2357 0.85819-3.3501 3.372-2.4892 5.6147 0.86091 2.2427 3.3712 3.3651 5.6068 2.5069 1.254-0.48136 2.1552-1.4836 2.553-2.6667 0.13177-0.5082 0.60539-0.86996 1.1486-0.8414 0.052395 0.0027546 0.10377 0.0090521 0.1539 0.018649l9.065 0.74788c0.047438-0.0035478 0.095632-0.0041284 0.14439-0.0015652 0.62241 0.032722 1.1005 0.56541 1.0679 1.1898-0.0029486 0.056441-0.0099697 0.1117-0.020763 0.1655l0.011245 0.01668c-0.90485 5.3605-4.5324 10.114-9.9665 12.2-8.1974 3.1467-17.402-0.96877-20.558-9.1921-3.1567-8.2234 0.92968-17.441 9.1271-20.587 5.8935-2.2623 12.307-0.7709 16.62 3.3021z" fill="url(#b)"/>
      <path d="m33.795 4.8627-0.088448-0.054555 0.001523 0.018787c0.25127 0.22079 0.40278 0.55079 0.38394 0.91139-0.01507 0.28847-0.13653 0.54605-0.32423 0.73647l8.859e-4 0.015837 0.054181-0.029666-4.0704 4.0708c-5.3169-4.9484-13.654-4.8208-18.848 0.37313-5.3111 5.3111-5.3247 13.909-0.030357 19.203 5.0563 5.0563 13.125 5.2713 18.467 0.65383l-0.021511 0.046567c0.21108-0.17747 0.48704-0.27832 0.78376-0.26272 0.28362 0.014911 0.53728 0.13364 0.72631 0.31755l0.033595 9.313e-4 3.41 3.41-0.12389-0.076362c0.21068 0.21808 0.33384 0.5201 0.31675 0.84729-0.022238 0.42568-0.27613 0.78408-0.6327 0.95871l0.25316-0.22381c-8.0579 7.1843-20.402 6.9302-28.108-0.77626-7.9897-7.9897-7.9691-20.964 0.045811-28.979 7.6225-7.6225 19.73-8.0143 27.77-1.1619z" fill="url(#a)"/>
    </g>
  </g>
</svg>
