<svg width="32" height="33" viewBox="0 0 32 33" xmlns="http://www.w3.org/2000/svg"><defs><linearGradient x1="91.763%" y1="29.375%" x2="7.656%" y2="24.82%" id="a"><stop stop-color="#50A0FF" offset="0%"/><stop stop-color="#306DF8" offset="100%"/></linearGradient><linearGradient x1="78.938%" y1="82.551%" x2="39.118%" y2="50%" id="b"><stop stop-color="#02DDFF" offset="0%"/><stop stop-color="#01B9FF" offset="100%"/></linearGradient></defs><g fill="none" fill-rule="evenodd"><path opacity=".626" d="M0 0h32v32H0z"/><g fill-rule="nonzero"><path d="m23.412 6.615-5.572 5.64.022-.04-.014.017a.825.825 0 0 1-.987.156v-.002l.061.07a3.18 3.18 0 0 0-2.737-.224c-1.657.636-2.473 2.527-1.822 4.224.651 1.696 2.523 2.555 4.18 1.92a3.176 3.176 0 0 0 1.848-1.894.84.84 0 0 1 .874-.765.82.82 0 0 1 .256.056l6.352.575a.817.817 0 0 1 .334-.052.85.85 0 0 1 .776 1.025l.009.013.07-.083c-.603 4.107-3.293 7.749-7.374 9.315-6.078 2.333-12.941-.818-15.329-7.038-2.388-6.22.604-13.154 6.682-15.488 4.37-1.677 9.145-.52 12.371 2.575Z" fill="url(#a)" transform="rotate(-3 34.094 -41.283)"/><path d="m25.714 4.084-.722-.447.002.015a.864.864 0 0 1 .284.689.862.862 0 0 1-.24.556v.013l.496-.268-3.33 3.33c-3.945-3.667-10.19-3.509-14.118.42-4.018 4.018-4.092 10.457-.167 14.382 3.785 3.786 9.908 3.851 13.942.25l-.122.28a.822.822 0 0 1 1.12.041l.186.006 2.875 2.875-.01.009-.588-.366a.865.865 0 0 1 .234.64.844.844 0 0 1-.88.81h.034c-6.084 4.96-14.95 4.702-20.494-.842-5.924-5.923-5.812-15.64.251-21.703 5.91-5.91 15.29-6.166 21.247-.69Z" fill="url(#b)" transform="rotate(-3 34.094 -41.283)"/></g></g></svg>